<mxfile host="app.diagrams.net" modified="2023-12-03T05:16:56.468Z" agent="Mozilla/5.0 (Windows NT 10.0; Win64; x64) AppleWebKit/537.36 (KHTML, like Gecko) Chrome/119.0.0.0 Safari/537.36" version="22.1.5" etag="Zkky8WFKMYBZToO3gpXJ" type="github">
  <diagram name="페이지-1" id="GY5w_apbpSwCGAApOGq1">
    <mxGraphModel>
      <root>
        <mxCell id="0" />
        <mxCell id="1" parent="0" />
      </root>
    </mxGraphModel>
  </diagram>
</mxfile>
